#!OML:ASF H:\Terrain\Patient Classification 1\PLAYGROUND\JustinFriday\JustinFriday.ASF
:FULLY-SPECIFIED
:DEGREES
1061
root -19.0068 27.3181 -11.0085 361.864 12.28 -3.81771
lowerback 24.5986 3.4567 7.60033
upperback 3.16296 5.74484 -8.20279
thorax -8.33868 2.50431 -14.8903
lowerneck -14.2853 -11.8146 13.5471
upperneck 19.7958 -21.5364 10.2727
head 8.54259 -8.01872 -1.01931
rclavicle 2.38542e-014 4.29375e-014
rhumerus 25.3994 -43.0043 -30.3159
rradius 74.9235
rwrist 1.46452
rhand -18.5528 -20.8733
rfingers 7.12502
rthumb 7.73676 -50.7118
lclavicle 2.38542e-014 4.29375e-014
lhumerus -15.9021 -16.0232 63.0203
lradius 92.326
lwrist -28.6585
lhand -34.5247 -11.6746
lfingers 7.12502
lthumb -7.68605 18.1657
rfemur -7.74542 -6.58009 33.0789
rtibia 13.067
rfoot -8.19795 -9.48128
rtoes 22.8485
lfemur -45.9101 6.96082 -10.3443
ltibia 99.6446
lfoot -36.7163 14.5323
ltoes -10.7727
1062
root -19.0157 27.2943 -10.993 361.714 11.7985 -3.8769
lowerback 23.9844 3.54738 6.99145
upperback 4.23152 5.74961 -7.35302
thorax -7.06996 2.6371 -14.125
lowerneck -15.3368 -11.416 13.5441
upperneck 19.5072 -21.1222 10.1107
head 8.60958 -7.82433 -1.09544
rclavicle 3.97569e-014 -7.95139e-015
rhumerus 28.7181 -43.4438 -32.3664
rradius 73.6878
rwrist 3.08708
rhand -23.7476 -17.9081
rfingers 7.12502
rthumb 2.72108 -47.8705
lclavicle 3.97569e-014 -7.95139e-015
lhumerus -14.1451 -16.3622 63.5736
lradius 92.5165
lwrist -28.0276
lhand -34.6484 -12.3947
lfingers 7.12502
lthumb -7.80539 17.4412
rfemur -7.49619 -6.4605 33.2457
rtibia 13.4948
rfoot -8.49138 -9.24955
rtoes 22.5267
lfemur -44.9684 6.33151 -9.60478
ltibia 100.427
lfoot -38.5963 9.10764
ltoes -1.21311
1063
root -19.0099 27.3059 -10.9636 361.691 11.0009 -3.55985
lowerback 23.7272 3.69242 6.52355
upperback 4.84114 5.82913 -7.26616
thorax -6.29152 2.77659 -13.6574
lowerneck -16.6046 -10.8629 14.2727
upperneck 19.7053 -20.6325 9.25042
head 8.7347 -7.55796 -1.49139
rclavicle -4.85035e-014 3.18055e-014
rhumerus 31.739 -44.086 -34.5825
rradius 74.0141
rwrist 3.07465
rhand -19.7639 -19.4753
rfingers 7.12502
rthumb 6.56775 -49.3535
lclavicle -4.85035e-014 3.18055e-014
lhumerus -11.776 -17.1171 64.0657
lradius 91.3955
lwrist -27.3961
lhand -35.01 -13.1713
lfingers 7.12502
lthumb -8.15438 16.6513
rfemur -7.25917 -5.718 32.7794
rtibia 13.2304
rfoot -8.47923 -9.03902
rtoes 24.0902
lfemur -44.9123 5.59042 -9.85211
ltibia 100.329
lfoot -37.38 10.8047
ltoes -4.09168
1064
root -19.0007 27.3558 -10.9264 361.794 10.5137 -3.58217
lowerback 23.9509 3.59074 6.93367
upperback 4.87836 5.79462 -7.37619
thorax -6.31348 2.75427 -14.0584
lowerneck -18.0191 -10.1804 15.4458
upperneck 20.5881 -20.0613 7.62056
head 9.00173 -7.23213 -2.20625
rclavicle -6.52014e-014 2.54444e-014
rhumerus 31.9189 -44.0024 -34.6524
rradius 73.4893
rwrist 4.37926
rhand -22.8417 -18.8812
rfingers 7.12502
rthumb 3.59597 -48.8307
lclavicle -6.52014e-014 2.54444e-014
lhumerus -10.9083 -18.483 63.8996
lradius 91.1252
lwrist -26.3459
lhand -34.5242 -13.9943
lfingers 7.12502
lthumb -7.68558 15.846
rfemur -7.42376 -6.16443 32.8406
rtibia 13.3846
rfoot -7.68054 -8.59762
rtoes 19.8443
lfemur -44.9783 4.79729 -9.83323
ltibia 100.18
lfoot -36.1245 13.0871
ltoes -8.03081
1065
root -18.9802 27.3621 -10.9263 362.123 9.77543 -3.50212
lowerback 24.6076 3.52284 7.37876
upperback 4.58414 5.81377 -7.59912
thorax -6.8976 2.69094 -14.7291
lowerneck -18.2772 -10.1622 15.729
upperneck 21.2615 -20.3242 7.75491
head 9.28205 -7.21831 -2.27336
rclavicle 9.54166e-015 2.8625e-014
rhumerus 32.7023 -43.5471 -35.526
rradius 73.31
rwrist 4.37048
rhand -25.752 -18.2031
rfingers 7.12502
rthumb 0.785294 -48.1814
lclavicle 9.54166e-015 2.8625e-014
lhumerus -10.391 -20.3194 63.8122
lradius 90.5546
lwrist -25.2925
lhand -33.7105 -14.8869
lfingers 7.12502
lthumb -6.90014 14.9806
rfemur -7.48944 -6.13127 32.752
rtibia 13.1257
rfoot -7.2792 -7.88278
rtoes 19.3542
lfemur -45.6095 4.28678 -9.94018
ltibia 100.361
lfoot -34.7766 14.1305
ltoes -9.21269
1066
root -18.9504 27.3664 -10.9308 362.597 8.99039 -2.59464
lowerback 24.4696 3.66912 6.6473
upperback 4.79225 5.80362 -7.6971
thorax -6.66452 2.72745 -14.3565
lowerneck -18.9542 -10.1028 14.7243
upperneck 21.857 -20.381 8.26491
head 9.77622 -7.14213 -2.07544
rclavicle -6.2816e-014 4.45278e-014
rhumerus 35.2724 -43.2082 -37.4301
rradius 73.0695
rwrist 5.66004
rhand -26.9867 -18.8061
rfingers 7.12502
rthumb -0.407205 -48.7854
lclavicle -6.2816e-014 4.45278e-014
lhumerus -8.26832 -20.974 63.9899
lradius 89.2337
lwrist -24.4816
lhand -33.385 -15.4307
lfingers 7.12502
lthumb -6.58591 14.4469
rfemur -7.385 -6.24541 31.6585
rtibia 12.9941
rfoot -7.61713 -6.57808
rtoes 22.5658
lfemur -46.0105 3.27668 -11.084
ltibia 100.541
lfoot -34.0045 14.5374
ltoes -8.36192
1067
root -18.9342 27.3678 -10.8955 362.589 8.45135 -2.43478
lowerback 23.455 3.8009 6.18196
upperback 5.57336 5.88156 -7.27942
thorax -5.35442 2.90852 -13.3711
lowerneck -19.2891 -9.55172 15.4185
upperneck 21.1667 -19.4714 7.16357
head 9.40268 -6.88496 -2.3967
rclavicle 2.62396e-014 -3.18055e-015
rhumerus 36.9438 -43.4381 -37.5867
rradius 73.0115
rwrist 5.94266
rhand -28.0822 -19.8214
rfingers 7.12502
rthumb -1.46534 -49.7962
lclavicle 2.62396e-014 -3.18055e-015
lhumerus -5.76236 -20.9786 64.3491
lradius 88.0525
lwrist -24.394
lhand -34.1414 -15.5374
lfingers 7.12502
lthumb -7.31604 14.3161
rfemur -7.54646 -6.1315 31.345
rtibia 13.3147
rfoot -7.5956 -6.01421
rtoes 23.2868
lfemur -45.7686 2.1986 -11.1778
ltibia 100.819
lfoot -33.6288 14.6415
ltoes -8.00235
1068
root -18.9338 27.3557 -10.8464 362.329 7.80427 -2.97665
lowerback 22.7996 3.9086 6.4348
upperback 6.06791 6.10009 -6.85485
thorax -4.43783 3.10033 -12.9357
lowerneck -20.0638 -9.29659 15.0672
upperneck 21.647 -19.2269 6.94529
head 9.72578 -6.73161 -2.46811
rclavicle 4.45278e-014 -4.13472e-014
rhumerus 38.0176 -43.0915 -37.7598
rradius 72.5181
rwrist 5.35491
rhand -30.8967 -19.505
rfingers 7.12502
rthumb -4.18338 -49.4437
lclavicle 4.45278e-014 -4.13472e-014
lhumerus -2.06774 -21.2719 64.8934
lradius 85.0016
lwrist -23.7284
lhand -33.6504 -16.3024
lfingers 7.12502
lthumb -6.84213 13.567
rfemur -7.17955 -5.52642 31.8865
rtibia 13.3415
rfoot -7.59396 -5.9432
rtoes 22.8145
lfemur -45.3363 1.70594 -10.1733
ltibia 101.33
lfoot -33.5434 14.1095
ltoes -8.48027
1069
root -18.9306 27.3544 -10.8131 362.323 7.14496 -2.93174
lowerback 22.905 4.0158 6.43872
upperback 5.97607 6.23947 -6.84244
thorax -4.55783 3.15513 -12.9757
lowerneck -19.7485 -9.16088 14.6951
upperneck 21.9228 -18.9633 7.12972
head 9.83403 -6.5921 -2.32609
rclavicle -4.6118e-014 -1.90833e-014
rhumerus 38.4341 -42.2975 -38.0228
rradius 72.4094
rwrist 3.61853
rhand -33.7423 -18.4298
rfingers 7.12502
rthumb -6.93082 -48.2963
lclavicle -4.6118e-014 -1.90833e-014
lhumerus -1.88643 -22.4089 64.3269
lradius 84.9846
lwrist -22.8799
lhand -33.8578 -16.9
lfingers 7.12502
lthumb -7.04229 12.9628
rfemur -6.35569 -5.55689 31.8559
rtibia 12.1903
rfoot -6.76934 -5.55124
rtoes 21.1415
lfemur -45.1005 1.12904 -9.97153
ltibia 101.824
lfoot -34.0097 12.1678
ltoes -6.0409
1070
root -18.9311 27.3724 -10.8039 362.44 6.3545 -3.01686
lowerback 23.6642 4.12111 6.65318
upperback 5.39448 6.42951 -6.91484
thorax -5.50524 3.14843 -13.3912
lowerneck -18.1442 -9.18104 15.6883
upperneck 21.7445 -18.6751 6.3957
head 9.31563 -6.57332 -2.53848
rclavicle 3.02153e-014 -4.92986e-014
rhumerus 39.2075 -42.0292 -39.166
rradius 73.7397
rwrist 4.03239
rhand -30.6788 -20.1693
rfingers 7.12502
rthumb -3.97294 -50.112
lclavicle 3.02153e-014 -4.92986e-014
lhumerus -1.68193 -23.8542 63.8593
lradius 84.3806
lwrist -22.4278
lhand -33.515 -16.9484
lfingers 7.12502
lthumb -6.71141 12.9252
rfemur -5.87524 -5.2801 32.0269
rtibia 11.4256
rfoot -6.247 -5.27047
rtoes 20.3678
lfemur -45.7656 0.771546 -9.63651
ltibia 102.326
lfoot -33.0651 11.8372
ltoes -7.78745
1071
root -18.9465 27.4008 -10.8323 362.631 4.99807 -4.30154
lowerback 24.3701 4.35515 7.57847
upperback 4.76444 7.00134 -6.57595
thorax -6.34376 3.31437 -13.8399
lowerneck -17.7117 -8.7044 16.3167
upperneck 22.4356 -17.9267 5.34452
head 9.34443 -6.24518 -2.87782
rclavicle -4.45278e-014 3.81667e-014
rhumerus 39.5939 -40.945 -39.6287
rradius 72.9988
rwrist 4.22776
rhand -41.9617 -13.5949
rfingers 7.12502
rthumb -14.8583 -43.0422
lclavicle -4.45278e-014 3.81667e-014
lhumerus -1.05047 -24.9323 63.5949
lradius 83.2771
lwrist -21.966
lhand -32.9297 -16.9248
lfingers 7.12502
lthumb -6.14635 12.966
rfemur -5.77459 -3.5755 33.5628
rtibia 10.6828
rfoot -5.70171 -5.61526
rtoes 19.5213
lfemur -47.816 1.39711 -7.38151
ltibia 103.315
lfoot -31.9301 9.59205
ltoes -6.14065
1072
root -18.8948 27.3811 -10.7613 362.636 4.02253 -3.81575
lowerback 23.7973 4.59949 7.66483
upperback 4.60109 7.30299 -6.79379
thorax -6.10451 3.47819 -14.1524
lowerneck -15.6577 -9.12244 16.1313
upperneck 22.2243 -17.9761 5.50022
head 8.92356 -6.3716 -2.66558
rclavicle 2.3059e-014 -2.06736e-014
rhumerus 39.9597 -40.14 -40.5373
rradius 72.9879
rwrist 6.08989
rhand -36.4309 -17.4884
rfingers 7.12502
rthumb -9.52559 -47.2531
lclavicle 2.3059e-014 -2.06736e-014
lhumerus -0.698124 -26.0686 63.2515
lradius 82.1555
lwrist -21.8482
lhand -33.6787 -17.3176
lfingers 7.12502
lthumb -6.86938 12.5509
rfemur -4.9879 -3.48832 32.583
rtibia 9.80542
rfoot -5.31245 -4.72154
rtoes 19.5313
lfemur -45.966 0.887651 -8.69547
ltibia 103.369
lfoot -31.1432 14.4447
ltoes -13.1952
1073
root -18.8652 27.3662 -10.7252 362.645 3.16303 -3.46867
lowerback 24.1306 4.80239 7.7509
upperback 3.93484 7.584 -7.0286
thorax -6.89687 3.5108 -14.6798
lowerneck -13.3173 -9.40277 16.0839
upperneck 22.0719 -17.8085 5.63088
head 8.47466 -6.38862 -2.44139
rclavicle 1.66979e-014 -2.38542e-014
rhumerus 38.7486 -39.2491 -39.9753
rradius 73.185
rwrist 5.60145
rhand -35.0522 -18.1473
rfingers 7.12502
rthumb -8.19515 -47.9684
lclavicle 1.66979e-014 -2.38542e-014
lhumerus -0.934614 -27.5812 62.8708
lradius 81.1386
lwrist -21.7792
lhand -34.6925 -17.5842
lfingers 7.12502
lthumb -7.84795 12.2501
rfemur -4.66005 -3.48064 31.9407
rtibia 9.25127
rfoot -5.05193 -3.68865
rtoes 23.3913
lfemur -45.2521 0.264581 -9.34327
ltibia 103.809
lfoot -30.0811 13.9961
ltoes -5.94483
